<svg width="396" height="112" viewBox="0 0 396 112" fill="none" xmlns="http://www.w3.org/2000/svg">
<path fill-rule="evenodd" clip-rule="evenodd" d="M30.5 2.5H0.5V70.4995H12.5V47.4995H26.5L41.5 70.4995H55.5L39.5 45.4995C63 31.9999 51.5 2.5 30.5 2.5ZM12.5002 12.4987C12.5002 12.4987 13.5 12.4989 28.5002 12.4987C36.2093 12.4986 38.7788 18.9999 38.7788 24.9999C38.7788 30.9999 34.5763 36.4987 28.5002 36.4987H12.5002V12.4987Z" fill="black" stroke="black"/>
<path d="M149.5 2.5L177.5 70.5H187.5L200 41.5L212.5 70.5H222.5L250.5 2.5H237.5L217.5 55.5L207.5 33.5L219.5 2.5H208.5L200 25L191.5 2.5H180.5L192.5 33.5L183 55.5L162.5 2.5H149.5Z" fill="black" stroke="black"/>
<path fill-rule="evenodd" clip-rule="evenodd" d="M246.5 70.5H260.5L266.5 53.5H291.5L298.5 70.5H311.5L284.5 2.5H273.5L246.5 70.5ZM268.5 44.5L279 16.5L289.5 44.5H268.5Z" fill="black" stroke="black"/>
<path d="M331.5 70.5H320.5V2.5H329.5L366.5 48.5V2.5H378.5V70.5H368.5L331.5 25.5V70.5Z" fill="black" stroke="black"/>
<path d="M218 111C215.677 111 213.605 110.464 211.784 109.393C209.964 108.298 208.539 106.774 207.509 104.821C206.503 102.869 206 100.595 206 98C206 95.4047 206.503 93.131 207.509 91.1786C208.539 89.2262 209.964 87.7143 211.784 86.6429C213.605 85.5476 215.677 85 218 85C220.347 85 222.419 85.5476 224.216 86.6429C226.036 87.7143 227.449 89.2262 228.455 91.1786C229.485 93.131 230 95.4047 230 98C230 100.595 229.485 102.869 228.455 104.821C227.449 106.774 226.036 108.298 224.216 109.393C222.419 110.464 220.347 111 218 111ZM218 107.571C219.605 107.571 221.042 107.179 222.311 106.393C223.581 105.607 224.575 104.5 225.293 103.071C226.012 101.619 226.371 99.929 226.371 98C226.371 96.0476 226.012 94.3571 225.293 92.9286C224.575 91.5 223.581 90.3929 222.311 89.6071C221.042 88.8214 219.605 88.4286 218 88.4286C216.395 88.4286 214.958 88.8214 213.689 89.6071C212.443 90.3929 211.449 91.5 210.707 92.9286C209.988 94.3571 209.629 96.0476 209.629 98C209.629 99.929 209.988 101.619 210.707 103.071C211.449 104.5 212.443 105.607 213.689 106.393C214.958 107.179 216.395 107.571 218 107.571Z" fill="black"/>
<path d="M392.39 12H390.53L388.382 8.97599V12H386.858V3.63599H389.186C389.754 3.63599 390.262 3.71999 390.71 3.88799C391.158 4.05199 391.512 4.32799 391.772 4.71599C392.032 5.10399 392.162 5.63199 392.162 6.29999C392.162 6.66399 392.1 7.03999 391.976 7.42799C391.856 7.81199 391.654 8.15599 391.37 8.45999C391.09 8.76399 390.71 8.97599 390.23 9.09599L392.39 12ZM388.382 8.21999H389.018C389.37 8.21999 389.664 8.13799 389.9 7.97399C390.14 7.80599 390.32 7.58799 390.44 7.31999C390.564 7.04799 390.626 6.75599 390.626 6.44399C390.626 5.90399 390.502 5.50199 390.254 5.23799C390.006 4.96999 389.582 4.83599 388.982 4.83599H388.382V8.21999Z" fill="black"/>
<path d="M19.304 85.744V110H15.112L3.97601 91.952V110H0.200012V85.744H4.39201L15.528 103.792V85.744H19.304Z" fill="black"/>
<path d="M51.5 109.5H68.5V107.5H54.5V98.5H67.5V96.5H54.5V88.5H68.5V86.5H51.5V109.5Z" fill="black" stroke="black"/>
<path d="M98.5 88.5H106.5V109.5H109.5V88.5H117.5V86.5H98.5V88.5Z" fill="black" stroke="black"/>
<path d="M153 109.5L146.5 86.5H149.5L154.5 105L160 86.5H163.5L169 105L174.5 86.5H177.5L170.5 109.5H167.5L161.5 90.5L156.5 109.5H153Z" fill="black" stroke="black"/>
<path d="M264.5 88.5H270.5C279 89 277.5 98.5 270.5 98.5H264.5V88.5Z" stroke="black"/>
<path fill-rule="evenodd" clip-rule="evenodd" d="M271.5 86.5H261.5V109.5H264.5V100.5H267.5L276.5 109.5H280.5L271.5 100.5C280.5 101.5 284 87 271.5 86.5ZM264.5 88.5H270.5C279 89 277.5 98.5 270.5 98.5H264.5V88.5Z" fill="black" stroke="black"/>
<path d="M311.5 109.5V86.5H314.5V97.5L326 86.5H329.5L320.5 95.5L330.5 109.5H326.5L318.5 98.5L314.5 101.5V109.5H311.5Z" fill="black" stroke="black"/>
<path d="M368.788 85.7637C370.796 85.6649 373.022 86.1383 374.742 87.1621C376.691 88.322 377.945 90.2107 378.4 92.3594C378.444 92.5667 378.482 92.7681 378.53 92.957L378.606 93.2549L378.299 93.2686C377.364 93.3105 376.303 93.2677 375.379 93.2705H375.196L375.141 93.0967C375.078 92.9026 375.015 92.6465 374.962 92.4707C374.385 90.5446 372.753 89.3304 370.719 88.998C369.492 88.7976 368.002 88.8019 366.763 89.209C365.533 89.6132 364.578 90.4006 364.325 91.7627C364.168 92.6719 364.303 93.3656 364.614 93.9092C364.928 94.457 365.436 94.8787 366.07 95.2158C367.352 95.8971 369.059 96.1917 370.495 96.5156C371.799 96.8099 373.26 97.0952 374.602 97.5898C375.947 98.086 377.201 98.803 378.088 99.979C379.266 101.542 379.395 103.481 379.141 105.266C378.834 107.416 377.616 108.937 375.985 109.904C374.362 110.868 372.33 111.284 370.366 111.248C369.933 111.24 369.34 111.257 368.87 111.186C366.774 110.958 364.972 110.509 363.217 109.24C361.168 107.759 360.146 105.734 359.753 103.353L359.704 103.057L360.005 103.062C360.165 103.066 360.895 103.053 361.609 103.049C361.963 103.047 362.312 103.047 362.576 103.052C362.708 103.054 362.822 103.058 362.907 103.063C362.949 103.066 362.989 103.07 363.022 103.075C363.038 103.078 363.06 103.081 363.081 103.087C363.092 103.09 363.108 103.095 363.126 103.104C363.133 103.107 363.146 103.113 363.161 103.123L363.21 103.164L363.245 103.213C363.25 103.222 363.254 103.23 363.256 103.234C363.26 103.244 363.264 103.253 363.267 103.259C363.272 103.272 363.277 103.287 363.282 103.303C363.293 103.334 363.306 103.377 363.321 103.426C363.352 103.523 363.391 103.653 363.431 103.784C363.512 104.055 363.593 104.319 363.616 104.381C363.895 105.122 364.357 105.792 364.95 106.336C366.509 107.766 368.763 108.197 370.9 108.131C372.287 108.088 373.857 107.711 374.781 106.748C375.493 106.007 375.776 104.997 375.737 103.967C375.718 103.456 375.621 102.908 375.409 102.463C374.904 101.401 373.837 100.738 372.565 100.279C371.294 99.821 369.88 99.587 368.726 99.344C367.722 99.132 366.565 98.896 365.467 98.536C364.369 98.176 363.306 97.6842 362.497 96.9473C361.249 95.8103 360.814 94.4265 360.765 92.8301C360.71 91.0842 361.32 89.3823 362.563 88.1035C364.151 86.471 366.597 85.8257 368.788 85.7637Z" fill="black" stroke="black" stroke-width="0.5"/>
<path d="M389 14.5C392.59 14.5 395.5 11.5899 395.5 8C395.5 4.41015 392.59 1.5 389 1.5C385.41 1.5 382.5 4.41015 382.5 8C382.5 11.5899 385.41 14.5 389 14.5Z" stroke="black"/>
<path d="M88.5699 8.3833C88.0003 9.3552 87.5279 10.3932 87.1972 11.4706C85.8062 16.0019 87.1524 20.7256 89.2481 24.6677C93.0787 31.8735 100.238 37.7658 107.354 41.4063L107.356 41.4081C109.946 42.7138 112.642 43.797 115.416 44.6451C121.182 46.4098 128.794 47.4122 134.493 44.355C137.132 42.9395 138.791 40.9904 139.942 38.603C139.494 42.4376 138.182 46.0354 135.919 49.2731C134.79 50.8633 133.262 52.3011 131.645 53.4154C126.115 57.2255 118.619 57.5706 112.095 56.3615C101.358 54.3713 91.2098 48.006 85.0208 38.9916C81.3851 33.6962 79.2428 27.0441 80.4273 20.6917C81.3714 15.6287 84.6009 11.5839 88.5699 8.3833Z" fill="#E9383B" stroke="black"/>
<path d="M104.326 1.40823C104.286 1.46997 104.248 1.53387 104.21 1.59975C103.509 2.8414 103.524 4.3137 103.873 5.57429C104.635 8.33149 106.576 10.9237 108.863 13.1321C111.157 15.3469 113.84 17.2137 116.151 18.5156C118.343 19.7509 121.131 21.03 124.014 21.8202C126.889 22.6081 129.91 22.9246 132.538 22.1757C133.718 21.8396 134.911 21.1872 135.571 19.9807C136.045 19.116 136.179 18.1886 136.134 17.2804C137.73 19.7359 139.009 22.453 139.071 25.2756C139.112 27.1654 138.479 28.7686 137.18 30.1377C135.767 31.5944 133.699 32.431 131.655 32.7742C130.071 33.0402 128.45 32.9923 126.812 32.8401C120.091 32.2159 113.529 29.3331 108.045 25.4081C105.575 23.6396 102.858 21.2367 100.638 18.5C98.413 15.7584 96.7148 12.7165 96.2241 9.66799C95.9375 7.88742 96.2192 6.13198 97.27 4.70674C98.689 2.78238 100.958 1.83382 103.367 1.4808L103.366 1.47991C103.681 1.44246 104.002 1.42181 104.326 1.40823Z" fill="#E9383B" stroke="black"/>
<path d="M74.3692 30.0208C74.3196 38.9762 78.4135 47.3664 84.5514 53.6862C91.6455 60.9905 101.729 65.7104 111.993 65.8467C117.535 65.9202 123.297 64.6601 128.135 61.8103C125.309 64.2192 122.069 66.1012 118.568 67.3572L118.565 67.3575C110.379 70.3505 101.09 69.7678 93.1974 66.0989C85.0811 62.3258 78.4326 55.3846 75.3642 46.9437L75.3641 46.9427C73.3868 41.5174 73.0428 35.635 74.3692 30.0208Z" fill="#E9383B" stroke="black"/>
<path d="M112.988 3.07662C113.791 2.92924 114.816 3.05326 115.863 3.34369C116.491 3.51785 117.109 3.74704 117.666 3.99665C117.511 4.12864 117.374 4.30077 117.292 4.5251C117.108 5.02654 117.281 5.52294 117.441 5.83643C117.987 6.91321 119.066 7.87 120.213 8.6265C121.226 9.2944 122.34 9.837 123.302 10.1912L123.705 10.3318C124.067 10.4502 124.577 10.6114 125.097 10.6879C125.602 10.7623 126.212 10.7722 126.717 10.4944C127.075 10.2976 127.337 9.9505 127.469 9.5939L127.518 9.4405C127.521 9.4313 127.522 9.4217 127.524 9.4126C128.466 10.1224 129.348 10.7963 130.078 11.6946C130.681 12.4349 131.19 13.3777 131.122 14.1909C131.097 14.3129 131.068 14.4207 131.03 14.5109L130.987 14.6C130.767 14.9892 130.371 15.2403 129.861 15.3799C128.464 15.7619 126.581 15.5078 124.654 14.9306C122.746 14.3588 120.875 13.4948 119.551 12.7485C118.13 11.9476 116.376 10.7548 114.873 9.3618C113.358 7.95833 112.152 6.40184 111.74 4.88321C111.609 4.40441 111.604 3.99788 111.786 3.70252C112.005 3.34843 112.389 3.20728 112.988 3.07662Z" fill="#E9383B" stroke="black"/>
</svg>
