<svg width="397" height="112" viewBox="0 0 397 112" fill="none" xmlns="http://www.w3.org/2000/svg">
<path fill-rule="evenodd" clip-rule="evenodd" d="M31.3 2.09177H1.29999V70.0913H13.3V47.0913H27.3L42.3 70.0913H56.3L40.3 45.0913C63.8 31.5917 52.3 2.09177 31.3 2.09177ZM13.3002 12.0905C13.3002 12.0905 14.3 12.0907 29.3002 12.0905C37.0093 12.0904 39.5788 18.5917 39.5788 24.5917C39.5788 30.5917 35.3763 36.0905 29.3002 36.0905H13.3002V12.0905Z" fill="white" stroke="white"/>
<path d="M150.3 2.09177L178.3 70.0918H188.3L200.8 41.0918L213.3 70.0918H223.3L251.3 2.09177H238.3L218.3 55.0918L208.3 33.0918L220.3 2.09177H209.3L200.8 24.5918L192.3 2.09177H181.3L193.3 33.0918L183.8 55.0918L163.3 2.09177H150.3Z" fill="white" stroke="white"/>
<path fill-rule="evenodd" clip-rule="evenodd" d="M247.3 70.0918H261.3L267.3 53.0918H292.3L299.3 70.0918H312.3L285.3 2.09177H274.3L247.3 70.0918ZM269.3 44.0918L279.8 16.0918L290.3 44.0918H269.3Z" fill="white" stroke="white"/>
<path d="M332.3 70.0918H321.3V2.09177H330.3L367.3 48.0918V2.09177H379.3V70.0918H369.3L332.3 25.0918V70.0918Z" fill="white" stroke="white"/>
<path d="M218.8 85.0918C221.066 85.0918 223.046 85.6199 224.756 86.6621L224.762 86.666C226.497 87.6875 227.846 89.1271 228.811 90.999L228.813 91.0039C229.799 92.8727 230.3 95.0636 230.3 97.5918C230.3 100.12 229.799 102.311 228.813 104.18L228.811 104.184C227.846 106.056 226.497 107.51 224.76 108.556C223.049 109.575 221.068 110.092 218.8 110.092C216.557 110.092 214.574 109.575 212.837 108.554C211.209 107.573 209.912 106.234 208.942 104.526L208.751 104.18C207.789 102.311 207.3 100.12 207.3 97.5918C207.3 95.0637 207.789 92.8727 208.751 91.0039C209.74 89.1297 211.102 87.6881 212.838 86.666L212.842 86.6631C214.578 85.619 216.559 85.0918 218.8 85.0918ZM218.8 87.5205C217.215 87.5205 215.772 87.8847 214.482 88.6211L214.226 88.7734L214.222 88.7763C212.894 89.6137 211.843 90.7904 211.064 92.29L211.061 92.2959C210.3 93.8079 209.929 95.5784 209.929 97.5918C209.929 99.5831 210.3 101.352 211.059 102.885L211.064 102.894C211.843 104.393 212.894 105.57 214.222 106.407L214.226 106.41C215.58 107.249 217.11 107.663 218.8 107.663C220.385 107.663 221.828 107.299 223.118 106.562L223.374 106.41C224.728 105.572 225.784 104.393 226.54 102.888L226.541 102.885C227.3 101.352 227.671 99.5831 227.671 97.5918C227.671 95.5786 227.301 93.8078 226.54 92.2959C225.784 90.7907 224.728 89.6113 223.374 88.7734C222.02 87.9351 220.491 87.5205 218.8 87.5205Z" fill="white" stroke="white"/>
<path d="M393.19 11.5918H391.33L389.182 8.56775V11.5918H387.658V3.22775H389.986C390.554 3.22775 391.062 3.31175 391.51 3.47975C391.958 3.64375 392.312 3.91975 392.572 4.30775C392.832 4.69575 392.962 5.22375 392.962 5.89175C392.962 6.25575 392.9 6.63175 392.776 7.01975C392.656 7.40375 392.454 7.74775 392.17 8.05175C391.89 8.35575 391.51 8.56775 391.03 8.68775L393.19 11.5918ZM389.182 7.81175H389.818C390.17 7.81175 390.464 7.72975 390.7 7.56575C390.94 7.39775 391.12 7.17975 391.24 6.91175C391.364 6.63975 391.426 6.34775 391.426 6.03575C391.426 5.49575 391.302 5.09375 391.054 4.82975C390.806 4.56175 390.382 4.42775 389.782 4.42775H389.182V7.81175Z" fill="white"/>
<path d="M4.91309 85.8358L15.9023 103.646L16.8281 105.146V85.8358H19.6035V109.092H16.1914L5.20117 91.2811L4.27637 89.7811V109.092H1.5V85.8358H4.91309Z" fill="white" stroke="white"/>
<path d="M52.3 109.092H69.3V107.092H55.3V98.0918H68.3V96.0918H55.3V88.0918H69.3V86.0918H52.3V109.092Z" fill="white" stroke="white"/>
<path d="M99.3 88.0918H107.3V109.092H110.3V88.0918H118.3V86.0918H99.3V88.0918Z" fill="white" stroke="white"/>
<path d="M153.8 109.092L147.3 86.0918H150.3L155.3 104.592L160.8 86.0918H164.3L169.8 104.592L175.3 86.0918H178.3L171.3 109.092H168.3L162.3 90.0918L157.3 109.092H153.8Z" fill="white" stroke="white"/>
<path d="M265.3 88.0918H271.3C279.8 88.5918 278.3 98.0918 271.3 98.0918H265.3V88.0918Z" stroke="black"/>
<path fill-rule="evenodd" clip-rule="evenodd" d="M272.3 86.0918H262.3V109.092H265.3V100.092H268.3L277.3 109.092H281.3L272.3 100.092C281.3 101.092 284.8 86.5918 272.3 86.0918ZM265.3 88.0918H271.3C279.8 88.5918 278.3 98.0918 271.3 98.0918H265.3V88.0918Z" fill="white" stroke="white"/>
<path d="M312.3 109.092V86.0918H315.3V97.0918L326.8 86.0918H330.3L321.3 95.0918L331.3 109.092H327.3L319.3 98.0918L315.3 101.092V109.092H312.3Z" fill="white" stroke="white"/>
<path d="M369.588 85.3555C371.596 85.2567 373.822 85.7301 375.542 86.7539C377.491 87.9138 378.745 89.8025 379.2 91.9512C379.244 92.1585 379.282 92.3599 379.33 92.5488L379.406 92.8467L379.099 92.8604C378.164 92.9023 377.103 92.8595 376.179 92.8623H375.996L375.941 92.6885C375.878 92.4944 375.815 92.2383 375.762 92.0625C375.185 90.1364 373.553 88.9222 371.519 88.5898C370.292 88.3894 368.802 88.3937 367.563 88.8008C366.333 89.205 365.378 89.9924 365.125 91.3545C364.968 92.2637 365.103 92.9574 365.414 93.501C365.728 94.0488 366.236 94.4705 366.87 94.8076C368.152 95.4889 369.859 95.7835 371.295 96.1074C372.599 96.4017 374.06 96.687 375.402 97.1816C376.747 97.6778 378.001 98.3948 378.888 99.5708C380.066 101.134 380.195 103.073 379.941 104.858C379.634 107.008 378.416 108.529 376.785 109.496C375.162 110.46 373.13 110.876 371.166 110.84C370.733 110.832 370.14 110.849 369.67 110.778C367.574 110.55 365.772 110.101 364.017 108.832C361.968 107.351 360.946 105.326 360.553 102.945L360.504 102.649L360.805 102.654C360.965 102.658 361.695 102.645 362.409 102.641C362.763 102.639 363.112 102.639 363.376 102.644C363.508 102.646 363.622 102.65 363.707 102.655C363.749 102.658 363.789 102.662 363.822 102.667C363.838 102.67 363.86 102.673 363.881 102.679C363.892 102.682 363.908 102.687 363.926 102.696C363.933 102.699 363.946 102.705 363.961 102.715L364.01 102.756L364.045 102.805C364.05 102.814 364.054 102.822 364.056 102.826C364.06 102.836 364.064 102.845 364.067 102.851C364.072 102.864 364.077 102.879 364.082 102.895C364.093 102.926 364.106 102.969 364.121 103.018C364.152 103.115 364.191 103.245 364.231 103.376C364.312 103.647 364.393 103.911 364.416 103.973C364.695 104.714 365.157 105.384 365.75 105.928C367.309 107.358 369.563 107.789 371.7 107.723C373.087 107.68 374.657 107.303 375.581 106.34C376.293 105.599 376.576 104.589 376.537 103.559C376.518 103.048 376.421 102.5 376.209 102.055C375.704 100.993 374.637 100.33 373.365 99.8708C372.094 99.4128 370.68 99.1788 369.526 98.9358C368.522 98.7238 367.365 98.4878 366.267 98.1278C365.169 97.7678 364.106 97.276 363.297 96.5391C362.049 95.4021 361.614 94.0183 361.565 92.4219C361.51 90.676 362.12 88.9741 363.363 87.6953C364.951 86.0628 367.397 85.4175 369.588 85.3555Z" fill="white" stroke="white" stroke-width="0.5"/>
<path d="M389.8 14.0918C393.39 14.0918 396.3 11.1816 396.3 7.59177C396.3 4.00192 393.39 1.09177 389.8 1.09177C386.21 1.09177 383.3 4.00192 383.3 7.59177C383.3 11.1816 386.21 14.0918 389.8 14.0918Z" stroke="white"/>
<path d="M89.3699 7.97507C88.8003 8.94697 88.3279 9.98497 87.9972 11.0624C86.6062 15.5937 87.9524 20.3174 90.0481 24.2595C93.8787 31.4653 101.038 37.3576 108.154 40.9981L108.156 40.9999C110.746 42.3056 113.442 43.3888 116.216 44.2369C121.982 46.0016 129.594 47.004 135.293 43.9468C137.932 42.5313 139.591 40.5822 140.742 38.1948C140.294 42.0294 138.982 45.6272 136.719 48.8649C135.59 50.4551 134.062 51.8929 132.445 53.0072C126.915 56.8173 119.419 57.1624 112.895 55.9533C102.158 53.9631 92.0098 47.5978 85.8208 38.5834C82.1851 33.288 80.0428 26.6359 81.2273 20.2835C82.1714 15.2205 85.4009 11.1757 89.3699 7.97507Z" fill="#E9383B" stroke="black"/>
<path d="M105.126 1C105.086 1.06174 105.048 1.12564 105.01 1.19152C104.309 2.43317 104.324 3.90547 104.673 5.16606C105.435 7.92326 107.376 10.5155 109.663 12.7239C111.957 14.9387 114.64 16.8055 116.951 18.1074C119.143 19.3427 121.931 20.6218 124.814 21.412C127.689 22.1999 130.71 22.5164 133.338 21.7675C134.518 21.4314 135.711 20.779 136.371 19.5725C136.845 18.7078 136.979 17.7804 136.934 16.8722C138.53 19.3277 139.809 22.0448 139.871 24.8674C139.912 26.7572 139.279 28.3604 137.98 29.7295C136.567 31.1862 134.499 32.0228 132.455 32.366C130.871 32.632 129.25 32.5841 127.612 32.4319C120.891 31.8077 114.329 28.9249 108.845 24.9999C106.375 23.2314 103.658 20.8285 101.438 18.0918C99.213 15.3502 97.5148 12.3083 97.0241 9.25976C96.7375 7.47919 97.0192 5.72375 98.07 4.29851C99.489 2.37415 101.758 1.42559 104.167 1.07257L104.166 1.07168C104.481 1.03423 104.802 1.01358 105.126 1Z" fill="#E9383B" stroke="black"/>
<path d="M75.1692 29.6126C75.1196 38.568 79.2135 46.9582 85.3514 53.278C92.4455 60.5823 102.529 65.3022 112.793 65.4385C118.335 65.512 124.097 64.2519 128.935 61.4021C126.109 63.811 122.869 65.693 119.368 66.949L119.365 66.9493C111.179 69.9423 101.89 69.3596 93.9974 65.6907C85.8811 61.9176 79.2326 54.9764 76.1642 46.5355L76.1641 46.5345C74.1868 41.1092 73.8428 35.2268 75.1692 29.6126Z" fill="#E9383B" stroke="black"/>
<path d="M113.788 2.66839C114.591 2.52101 115.616 2.64503 116.663 2.93546C117.291 3.10962 117.909 3.33881 118.466 3.58842C118.311 3.72041 118.174 3.89254 118.092 4.11687C117.908 4.61831 118.081 5.11471 118.241 5.4282C118.787 6.50498 119.866 7.46177 121.013 8.21827C122.026 8.88617 123.14 9.42877 124.102 9.78297L124.505 9.92357C124.867 10.042 125.377 10.2032 125.897 10.2797C126.402 10.3541 127.012 10.364 127.517 10.0862C127.875 9.88937 128.137 9.54227 128.269 9.18567L128.318 9.03227C128.321 9.02307 128.322 9.01347 128.324 9.00437C129.266 9.71417 130.148 10.3881 130.878 11.2864C131.481 12.0267 131.99 12.9695 131.922 13.7827C131.897 13.9047 131.868 14.0125 131.83 14.1027L131.787 14.1918C131.567 14.581 131.171 14.8321 130.661 14.9717C129.264 15.3537 127.381 15.0996 125.454 14.5224C123.546 13.9506 121.675 13.0866 120.351 12.3403C118.93 11.5394 117.176 10.3466 115.673 8.95357C114.158 7.5501 112.952 5.99361 112.54 4.47498C112.409 3.99618 112.404 3.58965 112.586 3.29429C112.805 2.9402 113.189 2.79905 113.788 2.66839Z" fill="#E9383B" stroke="black"/>
</svg>
