<svg width="59" height="60" viewBox="0 0 59 60" fill="none" xmlns="http://www.w3.org/2000/svg">
<path d="M13.861 7.15543C13.4602 7.88761 13.1249 8.65999 12.88 9.45779C11.6863 13.3463 12.8425 17.3936 14.6326 20.7608C17.9061 26.9188 24.0208 31.9498 30.094 35.0567L30.097 35.0574C32.3077 36.1721 34.6094 37.0963 36.9771 37.8203C41.8948 39.3254 48.4066 40.1888 53.2908 37.5689C55.4116 36.4312 56.7943 34.8908 57.7716 33.0209C57.346 36.118 56.2462 39.0264 54.4083 41.6547C53.4524 43.0005 52.1579 44.2185 50.7868 45.1632C46.0973 48.3943 39.7318 48.6911 34.1814 47.6623C25.0498 45.9697 16.4192 40.5561 11.1567 32.8911C8.06584 28.3894 6.24973 22.7399 7.2545 17.3512C8.03038 13.1903 10.6279 9.83579 13.861 7.15543Z" fill="#E9383B" stroke="black"/>
<path d="M27.4108 0.98526C27.4018 1.0005 27.3932 1.01618 27.3845 1.03169C26.7738 2.11219 26.7896 3.38791 27.09 4.47402C27.7451 6.84202 29.4091 9.06259 31.3629 10.9489C33.3231 12.8415 35.6146 14.4354 37.5884 15.5474C39.4608 16.6023 41.8426 17.695 44.3067 18.3703C46.7628 19.0434 49.3521 19.3168 51.6103 18.6733C52.6255 18.384 53.6634 17.8192 54.2396 16.7668C54.6048 16.0998 54.7363 15.3913 54.7346 14.692C56.0234 16.7198 57.0324 18.9431 57.0831 21.2449C57.118 22.8371 56.5844 24.1861 55.4883 25.3398C54.2987 26.5639 52.5553 27.2708 50.8251 27.5614C49.4842 27.7865 48.111 27.746 46.7174 27.6166C41.0059 27.0862 35.426 24.6354 30.7609 21.2963C28.6597 19.7923 26.3491 17.7493 24.4616 15.423C22.5701 13.0919 21.1312 10.5114 20.716 7.93122C20.4741 6.4287 20.7129 4.95427 21.5942 3.75919C22.7849 2.14467 24.6902 1.34127 26.7274 1.04043L26.7285 1.04132C26.9529 1.01442 27.1806 0.99728 27.4108 0.98526Z" fill="#E9383B" stroke="black"/>
<path d="M1.94882 25.9372C2.10148 33.3471 5.55034 40.263 10.6431 45.5067C16.701 51.7442 25.313 55.7755 34.0805 55.8918C38.5404 55.951 43.1695 54.9985 47.15 52.8503C44.9032 54.6453 42.3737 56.0616 39.6593 57.0354L39.6564 57.0366C32.6998 59.5801 24.8044 59.0848 18.0951 55.9659C11.1953 52.7584 5.54374 46.8576 2.936 39.6841L2.93592 39.6831C1.32999 35.2767 0.991218 30.5151 1.94882 25.9372Z" fill="#E9383B" stroke="black"/>
<path d="M34.9363 2.40003C35.6051 2.27546 36.4686 2.37806 37.3595 2.62505C37.8532 2.76194 38.3391 2.93964 38.7833 3.13335C38.6786 3.24082 38.5877 3.37272 38.528 3.53556C38.3604 3.99243 38.52 4.43946 38.6585 4.71221C39.1331 5.64664 40.0641 6.46985 41.0457 7.11702C42.038 7.77131 43.1428 8.28511 44.0389 8.57851C44.3476 8.67951 44.7878 8.81901 45.2379 8.88531C45.6732 8.94931 46.2121 8.96051 46.6647 8.71191L46.6657 8.71181C47.0066 8.52421 47.2457 8.18711 47.3565 7.85015C48.1263 8.43091 48.8397 8.98411 49.4358 9.71671C49.9455 10.3431 50.3626 11.1245 50.3097 11.7859C50.282 11.9214 50.2481 12.0307 50.2033 12.1101C50.0293 12.4189 49.7119 12.624 49.2888 12.7398C48.1192 13.0597 46.5301 12.8483 44.8918 12.3575C43.2717 11.8721 41.684 11.1384 40.5596 10.5047C39.3525 9.82431 37.8617 8.81041 36.5851 7.62771C35.2977 6.43495 34.2831 5.12011 33.9368 3.84613C33.8276 3.44398 33.829 3.12313 33.968 2.8982C34.1355 2.62716 34.4307 2.51096 34.9363 2.40003Z" fill="#E9383B" stroke="black"/>
</svg>
